# AST/ASF file generated using VICON BodyLanguage
# -----------------------------------------------
:version 1.10
:name VICON
:units
  mass 1.0
  length 0.45
  angle deg
:documentation
   .ast/.asf automatically generated from VICON data using
   VICON BodyBuilder and BodyLanguage model FoxedUp or BRILLIANT.MOD
:root
   order TX TY TZ RX RY RZ
   axis XYZ
   position 0 0 0  
   orientation 0 -0 0 
:bonedata
  begin
     id 1 
     name lhipjoint
     direction 0.500677 -0.737119 0.453848 
     length 2.34727 
     axis 0 -0 0  XYZ
  end
  begin
     id 2 
     name lfemur
     direction 0.34202 -0.939693 0  
     length 7.53653  
     axis 0 -0 20  XYZ
    dof rx ry rz
    limits (-160.0 20.0)
           (-70.0 70.0)
           (-60.0 70.0)
  end
  begin
     id 3 
     name ltibia
     direction 0.34202 -0.939693 0   
     length 6.85572   
     axis 0 -0 20   XYZ
    dof rx
    limits (-10.0 170.0)
  end
  begin
     id 4 
     name lfoot
     direction 0.155313 -0.426718 0.890949   
     length 2.18324   
     axis -90 -1.13533e-015 20   XYZ
    dof rx rz
    limits (-45.0 90.0)
           (-70.0 20.0)
  end
  begin
     id 5 
     name ltoes
     direction 1.53474e-011 -4.21647e-011 1   
     length 1.06748   
     axis -90 -1.13533e-015 20   XYZ
    dof rx
    limits (-90.0 20.0)
  end
  begin
     id 6 
     name rhipjoint
     direction -0.632471 -0.659587 0.406111   
     length 2.62319  
     axis 0 -0 0  XYZ 
  end
  begin
     id 7 
     name rfemur
     direction -0.34202 -0.939693 0   
     length 7.21735   
     axis 0 -0 -20   XYZ
    dof rx ry rz
    limits (-160.0 20.0)
           (-70.0 70.0)
           (-70.0 60.0)
  end
  begin
     id 8 
     name rtibia
     direction -0.34202 -0.939693 0   
     length 7.02558   
     axis 0 -0 -20   XYZ
    dof rx
    limits (-10.0 170.0)
 end
 begin
     id 9 
     name rfoot
     direction -0.16057 -0.441164 0.882945   
     length 2.10014  
     axis -90 1.13533e-015 -20   XYZ
    dof rx rz
    limits (-45.0 90.0)
           (-20.0 70.0)
  end
  begin
     id 10 
     name rtoes
     direction -1.53553e-011 -4.2192e-011 1   
     length 1.02554   
     axis -90 1.13533e-015 -20   XYZ
    dof rx
    limits (-90.0 20.0)
  end
  begin
     id 11 
     name lowerback
     direction 0.0401429 0.998861 -0.0258085   
     length 1.80848   
     axis 0 -0 0   XYZ
    dof rx ry rz
    limits (-20.0 45.0)
           (-30.0 30.0)
           (-30.0 30.0)
  end
  begin
     id 12 
     name upperback
     direction -0.0130978 0.999914 -0.000352645   
     length 1.8116   
     axis 0 -0 0   XYZ
    dof rx ry rz
    limits (-20.0 45.0)
           (-30.0 30.0)
           (-30.0 30.0)
  end
  begin
     id 13 
     name thorax
     direction -0.0300198 0.999453 0.0138573   
     length 1.81778   
     axis 0 -0 0   XYZ
    dof rx ry rz
    limits (-20.0 45.0)
           (-30.0 30.0)
           (-30.0 30.0)
  end
  begin
     id 14 
     name lowerneck
     direction -0.0401726 0.999191 -0.00173647   
     length 2.10594   
     axis 0 -0 0   XYZ
    dof rx ry rz
    limits (-20.0 45.0)
           (-30.0 30.0)
           (-30.0 30.0)
  end
  begin
     id 15 
     name upperneck
     direction 0.0119835 0.998501 0.0534085   
     length 2.07325   
     axis 0 -0 0   XYZ
    dof rx ry rz
    limits (-20.0 45.0)
           (-30.0 30.0)
           (-30.0 30.0)
  end
  begin
     id 16
     name head
     direction 0.00628309 0.999826 0.0175921  
     length 2.15096  
     axis 0 -0 0   XYZ
    dof rx ry rz
    limits (-20.0 45.0)
           (-30.0 30.0)
           (-30.0 30.0)
  end
  begin
     id 17 
     name lclavicle
     direction 0.895501 0.429681 -0.115981  
     length 4.18092  
     axis 0 -0 0   XYZ
    dof ry rz
    limits (-20.0 10.0)
           (0.0 20.0)
  end
  begin
     id 18 
     name lhumerus
     direction 1 -4.48961e-011 -3.38433e-028   
     length 5.77237   
     axis 180 -30 -90   XYZ
    dof rx ry rz
    limits (-60.0 90.0)
           (-90.0 90.0)
           (-90.0 90.0)
  end
  begin
     id 19
     name lradius
     direction 1 -4.4901e-011 1.11983e-026   
     length 2.91878   
     axis 180 -30 -90   XYZ
    dof rx
    limits (-10.0 170.0)
  end
  begin
     id 20
     name lwrist
     direction 1 -4.48934e-011 1.88176e-026   
     length 1.45939   
     axis -1.23311e-014 90 90   XYZ
    dof ry
    limits (-180.0 0.0)
 end
  begin
     id 21 
     name lhand
     direction 1 -4.4895e-011 3.76352e-026   
     length 1.06566   
     axis -2.40147e-014 90 90   XYZ
    dof rx rz
    limits (-90.0 90.0)
           (-45.0 45.0)
  end
  begin
     id 22 
     name lfingers
     direction 1 -4.49005e-011 7.52705e-026   
     length 0.859162   
     axis -4.80295e-014 90 90   XYZ
    dof rx
    limits (0.0 90.0)
  end
  begin
     id 23
     name lthumb
     direction 0.707107 -6.34885e-011 0.707107   
     length 1.23359   
     axis -90 45 -9.86935e-015   XYZ
    dof rx rz
    limits (-45.0 45.0)
           (-45.0 45.0)
  end
  begin
     id 24 
     name rclavicle
     direction -0.91006 0.40451 -0.0903492   
     length 4.23293  
     axis 0 -0 0   XYZ 
    dof ry rz
    limits (-10.0 20.0)
           (-20.0 0.0)
  end
  begin
     id 25 
     name rhumerus
     direction -1 -4.4897e-011 1.7415e-027  
     length 5.49854   
     axis 180 30 90   XYZ
    dof rx ry rz
    limits (-90.0 60.0)
           (-90.0 90.0)
           (-90.0 90.0)
  end
  begin
     id 26 
     name rradius
     direction -1 -4.48963e-011 1.21259e-026   
     length 3.1186   
     axis 180 30 90   XYZ
    dof rx
    limits (-10.0 170.0)
  end
  begin
     id 27 
     name rwrist
     direction -1 -4.48967e-011 1.88176e-026   
     length 1.5593   
     axis -1.23311e-014 -90 -90   XYZ
    dof ry
    limits (-180.0 0.0)
  end
  begin
     id 28
     name rhand
     direction -1 -4.4895e-011 3.76352e-026   
     length 0.71207   
     axis -2.40147e-014 -90 -90   XYZ
    dof rx rz
    limits (-90.0 90.0)
           (-45.0 45.0)
  end
  begin
     id 29
     name rfingers
     direction -1 -4.49005e-011 7.52705e-026   
     length 0.574089   
     axis -4.80295e-014 -90 -90   XYZ
    dof rx
    limits (0.0 90.0)
  end
  begin
     id 30
     name rthumb
     direction -0.707107 -6.34982e-011 0.707107   
     length 0.824281   
     axis -90 -45 9.86935e-015   XYZ
    dof rx rz
    limits (-45.0 45.0)
           (-45.0 45.0)
  end
:hierarchy
  begin
    root lhipjoint rhipjoint lowerback
    lhipjoint lfemur
    lfemur ltibia
    ltibia lfoot
    lfoot ltoes
    rhipjoint rfemur
    rfemur rtibia
    rtibia rfoot
    rfoot rtoes
    lowerback upperback
    upperback thorax
    thorax lowerneck lclavicle rclavicle
    lowerneck upperneck
    upperneck head
    lclavicle lhumerus
    lhumerus lradius
    lradius lwrist
    lwrist lhand lthumb
    lhand lfingers
    rclavicle rhumerus
    rhumerus rradius
    rradius rwrist
    rwrist rhand rthumb
    rhand rfingers
  end

#!OML:ASF C:\ViconDB\ViconDB\414\Spring2016\042216\male.ASF
:FULLY-SPECIFIED
:DEGREES
610
root 31.2523 17.3041 -1.52094 -536.932 26.4234 -180.251
lowerback 2.12538 -1.31424 2.75909
upperback -1.07669 -1.69134 -1.39491
thorax -2.42123 -0.896846 -2.91012
lowerneck -1.44108 2.21377 -6.60478
upperneck -1.366 3.08725 0.528241
head -0.29371 1.59455 1.26976
rclavicle 1.21445e-014 -7.95139e-015
rhumerus -37.295 -20.4064 -88.0803
rradius 27.8974
rwrist 25.4208
rhand 5.27308 -28.8428
rfingers 7.12502
rthumb 30.6304 -56.3141
lclavicle 1.21445e-014 -7.95139e-015
lhumerus -41.2943 20.4934 84.0892
lradius 37.0201
lwrist -1.4468
lhand -17.8801 18.3527
lfingers 7.12502
lthumb 8.38606 48.1662
rfemur -10.6282 7.35047 22.1566
rtibia 29.8419
rfoot -21.9004 -1.08418
rtoes -11.7101
lfemur -7.75512 -6.65542 -22.899
ltibia 29.9884
lfoot -30.9428 20.665
ltoes -12.6397
611
root 31.2556 17.3112 -1.51129 -536.831 26.5627 -180.099
lowerback 2.08229 -1.27985 2.49792
upperback -1.18617 -1.64959 -1.16688
thorax -2.49175 -0.87232 -2.5296
lowerneck -1.49402 2.22967 -6.75766
upperneck -0.933767 3.11531 0.732483
head -0.158084 1.59718 1.36559
rclavicle -2.1506e-014 -7.95139e-015
rhumerus -37.2005 -20.4289 -87.3275
rradius 28.4265
rwrist 24.6437
rhand 4.52787 -27.6755
rfingers 7.12502
rthumb 29.9195 -55.2773
lclavicle -2.1506e-014 -7.95139e-015
lhumerus -41.075 18.5882 84.8416
lradius 37.6247
lwrist 2.41624
lhand -17.6761 17.3794
lfingers 7.12502
lthumb 8.58292 47.185
rfemur -10.7344 8.90249 22.4347
rtibia 29.8617
rfoot -21.5844 -2.4728
rtoes -11.9453
lfemur -7.9815 -6.23825 -22.5844
ltibia 30.0496
lfoot -30.8074 20.0709
ltoes -12.5123
612
root 31.2722 17.3139 -1.51014 -536.74 26.7071 -179.833
lowerback 1.93279 -1.27458 2.2916
upperback -1.30133 -1.64659 -0.968234
thorax -2.51368 -0.866871 -2.21118
lowerneck -1.46039 2.31933 -6.63841
upperneck -0.461368 3.22884 0.864749
head -0.0220472 1.64051 1.39057
rclavicle -3.17434e-015 6.16232e-015
rhumerus -36.9277 -19.1875 -87.3747
rradius 28.6516
rwrist 22.0042
rhand 3.01198 -27.1526
rfingers 7.12502
rthumb 28.472 -55.006
lclavicle -3.17434e-015 6.16232e-015
lhumerus -41.2091 16.8182 85.1538
lradius 38.4451
lwrist 5.33365
lhand -16.4638 17.1566
lfingers 7.12502
lthumb 9.75272 46.9108
rfemur -10.6751 10.3825 22.8514
rtibia 29.8414
rfoot -21.4673 -3.75877
rtoes -11.9508
lfemur -8.09102 -5.75375 -22.1527
ltibia 30.183
lfoot -30.7595 19.4037
ltoes -12.6191
613
root 31.2912 17.3167 -1.51759 -536.667 26.7603 -179.693
lowerback 1.62843 -1.29352 2.04014
upperback -1.42377 -1.67912 -0.815505
thorax -2.45783 -0.877098 -1.91704
lowerneck -1.51925 2.35349 -6.66555
upperneck 0.179593 3.27771 1.15741
head 0.179431 1.6497 1.49635
rclavicle -2.45872e-014 1.59028e-015
rhumerus -36.5533 -17.1996 -87.8243
rradius 28.8994
rwrist 18.8864
rhand 1.80336 -26.9613
rfingers 7.12502
rthumb 27.3165 -55.0023
lclavicle -2.45872e-014 1.59028e-015
lhumerus -41.3787 15.3662 85.1704
lradius 38.769
lwrist 6.84101
lhand -15.3173 17.1612
lfingers 7.12502
lthumb 10.8587 46.8604
rfemur -10.6207 11.1875 23.0826
rtibia 29.7812
rfoot -21.2068 -4.44768
rtoes -12.1411
lfemur -8.18366 -5.40129 -21.8852
ltibia 30.3516
lfoot -30.6967 18.9192
ltoes -12.365
614
root 31.3054 17.3182 -1.53625 -536.677 26.6108 -179.709
lowerback 1.19232 -1.43559 1.80144
upperback -1.47878 -1.8779 -0.723935
thorax -2.26769 -0.969134 -1.69189
lowerneck -1.76985 2.42683 -6.70136
upperneck 0.894797 3.3928 1.46925
head 0.434178 1.69318 1.61569
rclavicle 4.12323e-015 -3.97569e-016
rhumerus -36.0463 -15.2056 -88.3256
rradius 28.9515
rwrist 17.0824
rhand 1.34644 -26.4904
rfingers 7.12502
rthumb 26.8794 -54.5994
lclavicle 4.12323e-015 -3.97569e-016
lhumerus -41.6198 14.2612 85.0124
lradius 39.2666
lwrist 7.48266
lhand -14.0405 17.617
lfingers 7.12502
lthumb 12.09 47.2478
rfemur -10.5168 11.389 23.1078
rtibia 29.7366
rfoot -21.1194 -4.74309
rtoes -12.3944
lfemur -8.19508 -5.26117 -21.8257
ltibia 30.4864
lfoot -30.7325 18.5015
ltoes -12.8312
615
root 31.3104 17.3158 -1.56251 -536.672 26.3866 -179.549
lowerback 0.693075 -1.60293 1.96177
upperback -1.47196 -2.10427 -0.665197
thorax -1.99377 -1.08104 -1.72859
lowerneck -1.98309 2.51227 -6.64239
upperneck 1.56004 3.5176 1.73918
head 0.669963 1.74482 1.70582
rclavicle -3.17652e-014 -2.78299e-015
rhumerus -35.5658 -12.6703 -89.0487
rradius 29.3513
rwrist 15.0021
rhand 1.77023 -26.6431
rfingers 7.12502
rthumb 27.2848 -54.689
lclavicle -3.17652e-014 -2.78299e-015
lhumerus -41.9457 12.7903 85.0292
lradius 39.9131
lwrist 8.11739
lhand -13.6062 18.1729
lfingers 7.12502
lthumb 12.5088 47.7785
rfemur -10.3122 11.4103 23.2886
rtibia 29.7119
rfoot -21.1165 -4.93801
rtoes -12.5223
lfemur -8.11058 -5.06558 -21.6167
ltibia 30.5816
lfoot -30.7996 17.9334
ltoes -12.9587
616
root 31.3142 17.3159 -1.59165 -536.669 26.1031 -179.543
lowerback 0.0833766 -1.77103 2.00624
upperback -1.44714 -2.33701 -0.627613
thorax -1.6368 -1.19312 -1.72944
lowerneck -2.26794 2.52214 -6.6108
upperneck 2.19317 3.54821 1.94617
head 0.914264 1.75182 1.78267
rclavicle -2.24332e-014 1.98785e-015
rhumerus -34.9697 -10.2252 -89.6141
rradius 29.4462
rwrist 14.0762
rhand 2.57451 -26.6034
rfingers 7.12502
rthumb 28.0539 -54.5259
lclavicle -2.24332e-014 1.98785e-015
lhumerus -42.2188 11.4479 85.0496
lradius 40.417
lwrist 7.7923
lhand -13.5433 18.3444
lfingers 7.12502
lthumb 12.5694 47.9463
rfemur -10.1715 11.1613 23.2772
rtibia 29.721
rfoot -21.172 -4.97246
rtoes -12.7135
lfemur -8.06836 -4.96589 -21.5752
ltibia 30.6283
lfoot -30.8351 17.3994
ltoes -12.8864
617
root 31.3143 17.3138 -1.62199 -536.724 25.848 -179.635
lowerback -0.485607 -1.93875 1.94801
upperback -1.42985 -2.5692 -0.577149
thorax -1.30558 -1.30374 -1.66237
lowerneck -2.50752 2.56731 -6.7296
upperneck 2.7694 3.62477 2.22588
head 1.12926 1.78396 1.91007
rclavicle -6.28725e-014 -6.4605e-015
rhumerus -34.4775 -8.23536 -89.73
rradius 29.5131
rwrist 14.9667
rhand 4.61515 -25.6644
rfingers 7.12502
rthumb 30.0028 -53.2512
lclavicle -6.28725e-014 -6.4605e-015
lhumerus -42.2502 10.5389 84.8875
lradius 40.228
lwrist 6.54565
lhand -13.2211 17.9647
lfingers 7.12502
lthumb 12.8801 47.5473
rfemur -10.0025 10.8766 23.1483
rtibia 29.7285
rfoot -21.2809 -4.84722
rtoes -12.6116
lfemur -8.00875 -4.51447 -21.6368
ltibia 30.6729
lfoot -30.909 16.6879
ltoes -12.8718
618
root 31.309 17.308 -1.65662 -536.924 25.5056 -179.798
lowerback -0.995276 -2.11408 1.95246
upperback -1.33537 -2.81276 -0.594038
thorax -0.93491 -1.42094 -1.70271
lowerneck -2.76368 2.58503 -6.7353
upperneck 3.22289 3.6622 2.42251
head 1.3142 1.79929 1.98957
rclavicle -1.99301e-014 4.57205e-015
rhumerus -33.9263 -6.01555 -89.9384
rradius 29.6018
rwrist 15.833
rhand 6.54927 -24.879
rfingers 7.12502
rthumb 31.8466 -52.1156
lclavicle -1.99301e-014 4.57205e-015
lhumerus -42.3927 9.02475 85.0164
lradius 40.5538
lwrist 5.89372
lhand -13.1495 17.9885
lfingers 7.12502
lthumb 12.9491 47.5667
rfemur -9.67348 10.8353 22.9931
rtibia 29.7757
rfoot -21.4449 -5.15251
rtoes -12.6793
lfemur -7.77424 -4.20532 -21.8237
ltibia 30.6702
lfoot -30.9558 16.1419
ltoes -12.6814
